<?xml version="1.0" encoding="UTF-8"?>
<svg id="Layer_1" data-name="Layer 1" xmlns="http://www.w3.org/2000/svg" viewBox="0 0 220 50">
  <defs>
    <style>
      .cls-1 {
        fill: rgba(35, 31, 32, 0);
      }

      .cls-1, .cls-2 {
        stroke-width: 0px;
      }

      .cls-2 {
        fill: #444545;
        fill-rule: evenodd;
      }
    </style>
  </defs>
  <g>
    <path class="cls-2" d="m55.45,49.98c5.4,0,9.77-4.36,9.77-9.74l-.02-9.77c-2.69,0-4.89,2.19-4.89,4.87v5.45c-.29,2.43-2.35,4.32-4.87,4.32-2.7,0-4.89-2.18-4.89-4.87s2.19-4.87,4.89-4.87h4.86c0-2.36-1.71-4.34-3.95-4.78-.76-.15-1.6-.1-2.35.01-4.72.69-8.34,4.74-8.34,9.64,0,5.38,4.38,9.74,9.77,9.74h.02Zm22.38-19.51c-2.2,0-4.23.72-5.86,1.95-.89-1.19-2.32-1.96-3.91-1.96v19.53h4.89v-9.77c0-2.71,2.19-4.88,4.89-4.88h2.05c2.69,0,4.89-2.19,4.89-4.87h-6.95Zm19.54,19.49c2.2,0,4.23-.73,5.87-1.95.89,1.18,2.31,1.95,3.91,1.95v-19.49c-2.69,0-4.89,2.19-4.89,4.87v4.89c-.02,2.7-2.2,4.86-4.89,4.86s-4.88-2.17-4.89-4.85v-4.89c0-2.68-2.2-4.87-4.89-4.87v9.77c.01,5.37,4.38,9.72,9.77,9.72h0Zm19.83-34.38c.98-3.08,3.04-4.14,6.97-4.01-2.37.97-4.65,1.86-6.14,4.08-.68,1-.27,1.43.44,1.56,2.53.49,5.45-1.61,6.81-3.55,1.09-1.55,1.81-3.37,2.08-4.96.14-.83.11-.6-.49-.23-3.8,2.38-7.64.41-10.02,3.73-1.87-8.14-10.36-5.64-16.13-11.8-.47-.5-.4-.58-.39.16.07,4.14.97,12.39,7.03,15.98,1.22.72,3.92,1.72,5.37,1.64.81-.04,1.06-.57.41-2.23-1.66-4.21-5.1-6.53-8.67-9.01,6.15,1.14,10.53,4.79,10.47,9.85-.02,1.6,1.37,1.33,1.84.3.21-.46.29-1.04.44-1.51h-.02Zm-74.37,25.09c-.23,5.18-4.51,9.31-9.76,9.31h-9.77v-14.67c0-2.68,2.2-4.87,4.89-4.87v14.67h4.89c2.7,0,4.89-2.18,4.89-4.87v-9.74c0-2.69-2.19-4.87-4.89-4.87h-4.89c-2.69,0-4.89-2.19-4.89-4.87h9.15c.41,0,.81,0,1.22.02,5.12.31,9.18,4.54,9.18,9.73v10.17h-.02Z"/>
    <path class="cls-2" d="m142.14,49.98c5.4,0,9.78-4.36,9.78-9.74l-.02-9.77c-2.69,0-4.89,2.19-4.89,4.87,0,1.35.12,5.21-.16,6.22-.58,2.05-2.47,3.55-4.71,3.55-2.7,0-4.89-2.18-4.89-4.87s2.19-4.87,4.89-4.87h4.86c0-2.17-1.44-4.01-3.41-4.64-1.15-.37-2.49-.25-3.64.02-4.34.99-7.59,4.87-7.59,9.5,0,5.38,4.38,9.74,9.77,9.74h.01Zm44.79-12.21h-4.26c.85-1.46,2.42-2.44,4.23-2.44h4.26c-.84,1.46-2.42,2.44-4.23,2.44h0Zm-9.7,3.79c.66,4.74,4.74,8.39,9.68,8.39h9.8c0-2.68-2.2-4.87-4.89-4.87h-4.91c-1.81,0-3.39-.98-4.23-2.44h4.26c6.42,0,11.05-6.05,9.47-12.18h-9.49c-5.96,0-10.5,5.25-9.68,11.1h0Zm-65.77,8.4h4.89v-6.41l1.38-1.37c2.09,2.14,4.25,4.25,6.37,6.37,1.9,1.89,5.01,1.89,6.91,0l-9.83-9.82,5.51-5.5c2.08-2.08,2.1-5.1.16-7.04-3.5,3.49-6.99,6.98-10.49,10.47v-15.92c-2.69,0-4.89,2.19-4.89,4.87v24.35h-.01Zm57.72-8.24c-.63,1.96-2.48,3.37-4.65,3.37-2.7,0-4.89-2.18-4.89-4.87s2.19-4.87,4.89-4.87c3.37,0,5.65,3.29,4.65,6.37h0Zm-4.65,8.24c5.4,0,9.77-4.36,9.77-9.74l-.02-19.47c-2.69,0-4.89,2.19-4.89,4.87v6.14c-6.43-3.69-14.64.9-14.64,8.45,0,5.38,4.38,9.74,9.77,9.74h0Z"/>
  </g>
  <rect class="cls-1" width="220" height="50"/>
</svg>