<svg id="Layer_1" data-name="Layer 1" xmlns="http://www.w3.org/2000/svg" viewBox="0 0 65 65"><defs><style>.cls-1{fill:#f0b71c;}.cls-2,.cls-3{fill:none;stroke:#fff;stroke-miterlimit:10;}.cls-2{stroke-width:1.5px;}</style></defs><circle class="cls-1" cx="32.5" cy="32.5" r="32.5"/><path class="cls-2" d="M1541.38,274.92c0,.23,0,.46,0,.68a12.73,12.73,0,0,1-.2,1.63c-.15.75-.3,1.51-.33,1.69a.29.29,0,0,1,0,.09,15.78,15.78,0,0,1-15,11.27h-12.94a2.76,2.76,0,0,1-1.78-4.86l7.68-6.51,1.67-1.36,5.11,3.21-4.49,3.86h5a7.14,7.14,0,0,0,1.27.07c.76,0,1.57-.07,2.09-.1,8.47-.38,11.85-9.34,12-9.9A1.77,1.77,0,0,1,1541.38,274.92Z" transform="translate(-1491.04 -241.26)"/><path class="cls-2" d="M1541.37,274.68h0c-.2.56-3.58,9.52-12,9.9-.52,0-1.33.09-2.09.1,4.2-.76,7.58-5.11,7.58-8.73v-.69c-.19-3.08-1-5.09-2.69-6.49-2.51-2.1-7-2.9-13.63-2.41l10.59,6.23a3,3,0,0,1,.33,4.68l-2.27,2.09-20.71-14a2.53,2.53,0,0,1-.88-2.75,2.68,2.68,0,0,1,2.51-1.84l17.72-.5A15.49,15.49,0,0,1,1541.2,273,10.51,10.51,0,0,1,1541.37,274.68Z" transform="translate(-1491.04 -241.26)"/><path class="cls-3" d="M1541.36,275.6a7.93,7.93,0,0,1-.1,1C1541.3,276.26,1541.35,275.94,1541.36,275.6Z" transform="translate(-1491.04 -241.26)"/><path class="cls-3" d="M1541.16,277.23c0-.21.07-.43.1-.65a12.89,12.89,0,0,1-.43,2.34C1540.86,278.74,1541,278,1541.16,277.23Z" transform="translate(-1491.04 -241.26)"/></svg>