<svg id="Layer_1" data-name="Layer 1" xmlns="http://www.w3.org/2000/svg" viewBox="0 0 65 65"><defs><style>.cls-1{fill:#26a9e0;}.cls-2{fill:#fff;stroke:#fff;stroke-miterlimit:10;stroke-width:0.5px;}</style></defs><circle class="cls-1" cx="32.5" cy="32.5" r="32.5"/><path class="cls-2" d="M332.71,400.5H313.42l-.21-.11a4.18,4.18,0,0,1-3.34-4.31V378.3a6.37,6.37,0,0,1,5.17-6.46c.21-.11.54-.11.86-.22H316v-.32h-1.08c-.75-.11-1.18-.43-1.18-1.18v-2.91a1.33,1.33,0,0,1,.53-1.08l.11-.11h17.46l.1.11a1.31,1.31,0,0,1,.54,1.08v2.91c0,.86-.32,1.18-1.18,1.18h-1.08v.43h.11a5.78,5.78,0,0,1,2.69.86,6.25,6.25,0,0,1,3.23,5.82v18a4,4,0,0,1-2,3.55,4.59,4.59,0,0,1-1.08.43.78.78,0,0,0-.43.11Zm-19-.75H332.6c.11,0,.32-.11.43-.11a4.12,4.12,0,0,0,1-.43,3.28,3.28,0,0,0,1.73-2.91v-18a5.88,5.88,0,0,0-2.91-5.27,9.24,9.24,0,0,0-2.48-.65l-.76-.11v-1.72h1.73c.43,0,.43,0,.43-.43v-2.91a.62.62,0,0,0-.11-.43h-17c-.11.1-.11.21-.11.43v2.91c0,.43,0,.43.43.43h1.83v1.83H316c-.33,0-.54.11-.86.11a5.69,5.69,0,0,0-4.53,5.81v17.78a3.4,3.4,0,0,0,2.8,3.56Z" transform="translate(-290.5 -351.5)"/><path class="cls-2" d="M315.68,392.74l-.21-.64,2.8-1h.11c.11,0,8.4,2,11.53-1.3a3.59,3.59,0,0,0,.21-4.63A.38.38,0,0,1,330,385a19.64,19.64,0,0,0-5.49-6,1.54,1.54,0,0,0-.75-.21h-3.24a.78.78,0,0,0-.75.64l-.32,1.29a.86.86,0,0,0,.32,1l.11.11a.8.8,0,0,0,.86.11l2.48-1.29.21.21c.11.11,1.83,2.37,1.4,4.42l1.62,1.94a.34.34,0,0,1,.11.22l-.43.21-.22-.21a4.79,4.79,0,0,0-5.82-1.3l-.21.11-.22-.22s-2.15-1.93-3.88-.75l-.43-.65c1.83-1.29,4,.11,4.63.65a4.94,4.94,0,0,1,4.1-.11V385c.43-1.4-.65-3.12-1.08-3.77l-1.94,1.08a1.3,1.3,0,0,1-1.61-.21l-.11-.11a1.72,1.72,0,0,1-.54-1.73l.32-1.29a1.53,1.53,0,0,1,1.4-1.08h3.13a1.62,1.62,0,0,1,1.18.43,22.07,22.07,0,0,1,5.61,6.25.1.1,0,0,0,.1.11,4.13,4.13,0,0,1-.32,5.5c-3.12,3.66-10.88,1.94-12,1.72Z" transform="translate(-290.5 -351.5)"/></svg>