<svg id="Layer_1" data-name="Layer 1" xmlns="http://www.w3.org/2000/svg" viewBox="0 0 65 65"><defs><style>.cls-1{fill:#4062ac;}.cls-2{fill:none;stroke:#fff;stroke-miterlimit:10;}.cls-3{fill:#fff;}</style></defs><circle class="cls-1" cx="32.5" cy="32.5" r="32.5"/><rect class="cls-2" x="15.75" y="17.31" width="33.06" height="30.68" rx="4.41"/><rect class="cls-3" x="24.41" y="14" width="2.22" height="6.76" rx="1.11"/><rect class="cls-3" x="36.54" y="14" width="2.22" height="6.76" rx="1.11"/><circle class="cls-3" cx="24.35" cy="33.14" r="1.77"/><circle class="cls-3" cx="31.76" cy="32.97" r="1.77"/><circle class="cls-3" cx="24.35" cy="37.69" r="1.77"/><circle class="cls-3" cx="31.76" cy="37.53" r="1.77"/><circle class="cls-3" cx="40.19" cy="37.52" r="1.77"/><circle class="cls-3" cx="24.23" cy="42.79" r="1.77"/><circle class="cls-3" cx="31.64" cy="42.63" r="1.77"/><circle class="cls-3" cx="40.06" cy="42.62" r="1.77"/><rect class="cls-3" x="15.75" y="22.83" width="33.06" height="1.39"/><polyline class="cls-2" points="22.56 27.4 23.88 29.05 26.99 25.51"/><polyline class="cls-2" points="29.54 27.55 30.87 29.21 33.98 25.67"/><polyline class="cls-2" points="38.86 32.01 40.19 33.67 43.29 30.13"/><polyline class="cls-2" points="38.64 27.34 39.96 29 43.07 25.46"/></svg>