<?xml version="1.0" encoding="UTF-8"?>
<svg id="Layer_1" data-name="Layer 1" xmlns="http://www.w3.org/2000/svg" viewBox="0 0 65 65">
  <defs>
    <style>
      .cls-1 {
        fill: none;
        stroke: #fff;
        stroke-miterlimit: 10;
      }

      .cls-2 {
        fill: #da1c5c;
        stroke-width: 0px;
      }
    </style>
  </defs>
  <circle class="cls-2" cx="32.5" cy="32.5" r="32.5"/>
  <g>
    <path class="cls-1" d="m28.57,37.07l-4.44,3.96,3.23,3.62-2.56,2.28-3.23-3.62-3.62,3.23-2.28-2.56,3.62-3.23-3.23-3.62,2.56-2.28,3.23,3.62,4.47-3.99c-3.16-4.88-2.38-11.46,2.09-15.45,4.94-4.41,12.52-3.98,16.93.96s3.98,12.52-.96,16.93c-4.54,4.06-11.32,4.02-15.8.14Z"/>
    <path class="cls-1" d="m40.98,17.22c-1.64,1.98-2.97,4.07-3.21,6.57-.01.13,0,.25,0,.38,0,1.06-.55,1.87-1.6,2.46l-1.47.83c-.53.3-.58,1.05-.08,1.41l.99.72c.07.05.12.12.14.2.1.42.12.83,0,1.21-.05.16-.18.27-.34.32l-.18.06c-.23.07-.33.35-.2.55.19.27.43.49.73.64.04.02.04.07,0,.08-.27.14-.49.34-.62.6-.07.14-.08.31-.03.46.13.34.39.61.82.78.11.04.36.16.3.26-.02.03-.33.49-.35.52-.79,1.39.22,2.34,1.34,2.81.9.37,2.5.29,3.88,0,10.64-2.43,8.17-19.36-.09-20.89Z"/>
  </g>
</svg>