<?xml version="1.0" encoding="UTF-8"?>
<svg id="Layer_1" data-name="Layer 1" xmlns="http://www.w3.org/2000/svg" viewBox="0 0 65 65">
  <defs>
    <style>
      .cls-1 {
        fill: #fff;
        stroke: #fff;
        stroke-miterlimit: 10;
        stroke-width: .25px;
      }

      .cls-2 {
        fill: #92278f;
        stroke-width: 0px;
      }
    </style>
  </defs>
  <circle class="cls-2" cx="32.5" cy="32.5" r="32.5"/>
  <path class="cls-1" d="m46.05,49.34c-.88-1.32-.99-3.19,0-4.51l.33-.55V14.83h-22.42c-1.87,0-3.52,1.65-3.52,3.52v28.47c0,1.76,1.43,3.19,3.19,3.19h22.97l-.55-.66Zm-24.73-31c0-1.54,1.21-2.64,2.64-2.75h21.43v28.36h-22.2c-.66,0-1.43.22-1.87.77v-26.38Zm23.52,30.78h-21.32c-1.21,0-2.31-.99-2.31-2.31h0c0-.99.88-1.87,1.87-1.87h21.65c-.44,1.32-.44,2.86.11,4.18h0Z"/>
  <path class="cls-1" d="m36.27,36.37h-5.61v-4.51h-4.51v-5.61h4.51v-4.4h5.61v4.51h4.51v5.61h-4.51v4.4Zm-4.73-.88h3.85v-4.51h4.51v-3.85h-4.51v-4.4h-3.85v4.51h-4.51v3.85h4.51v4.4Z"/>
</svg>