<?xml version="1.0" encoding="UTF-8"?>
<svg id="Layer_1" data-name="Layer 1" xmlns="http://www.w3.org/2000/svg" viewBox="0 0 65 65">
  <defs>
    <style>
      .cls-1 {
        fill: #fff;
        stroke: #fff;
        stroke-miterlimit: 10;
        stroke-width: .25px;
      }

      .cls-2 {
        fill: #ec008c;
        stroke-width: 0px;
      }
    </style>
  </defs>
  <circle class="cls-2" cx="32.5" cy="32.5" r="32.5"/>
  <path class="cls-1" d="m38.38,20.24c-2.13,0-4.23.5-6.13,1.46v-7.7h-4.51c-2.26,0-4.09,1.82-4.09,4.08v6.88h-2.23v8.17h-2.52v13.2c0,2.21,1.79,4,4.01,4h0s10.14,0,10.14,0c1.68,0,3.14-1.15,3.54-2.78.6.09,1.2.13,1.8.12,7.58,0,13.73-6.14,13.73-13.72,0-7.58-6.14-13.73-13.72-13.73,0,0,0,0,0,0Zm-13.97-2.15c0-1.83,1.49-3.32,3.32-3.32h3.74v10.2h-7.06v-6.88Zm-2.24,7.65h11.63v7.3h-11.63v-7.3Zm12.39,7.4v-8.17h-2.09c4.9-3.26,11.51-1.93,14.77,2.96,3.26,4.9,1.93,11.51-2.96,14.77-2.23,1.49-4.95,2.08-7.6,1.65v-11.2h-2.12Zm-1.52,16.44h-10.14c-1.79,0-3.25-1.45-3.25-3.24v-12.44h16.26v12.8c0,.14-.01.26-.02.39-.19,1.43-1.41,2.49-2.85,2.49Zm5.34-2.65c-.57,0-1.14-.04-1.71-.11,0-.04.01-.08.01-.11v-1.59c.56.08,1.13.12,1.7.12,6.3,0,11.41-5.11,11.41-11.41s-5.11-11.41-11.41-11.41c-2.18-.01-4.31.62-6.13,1.8v-1.67c6.3-3.39,14.16-1.03,17.56,5.27,3.39,6.3,1.03,14.16-5.27,17.56-1.89,1.02-4,1.55-6.15,1.55Z"/>
</svg>