<?xml version="1.0" encoding="UTF-8"?>
<svg id="Layer_1" data-name="Layer 1" xmlns="http://www.w3.org/2000/svg" viewBox="0 0 65 65">
  <defs>
    <style>
      .cls-1 {
        fill: none;
        stroke: #fff;
        stroke-miterlimit: 10;
      }

      .cls-2 {
        fill: #f15a29;
        stroke-width: 0px;
      }
    </style>
  </defs>
  <circle class="cls-2" cx="32.5" cy="32.5" r="32.5"/>
  <g>
    <rect class="cls-1" x="22.5" y="18.5" width="21" height="33" rx="4.33" ry="4.33"/>
    <rect class="cls-1" x="26.5" y="11.5" width="14" height="4"/>
    <path class="cls-1" d="m34.58,24.61l1.61,1.61-3.22,3.22-1.61-1.61c-.89-.89-.89-2.33,0-3.22.45-.45,1.03-.67,1.61-.67.58,0,1.16.22,1.61.67Z"/>
    <path class="cls-1" d="m34.05,30.52l3.22-3.22,1.61,1.61c.89.89.89,2.33,0,3.22s-2.33.89-3.22,0l-1.61-1.61Z"/>
    <path class="cls-1" d="m30.51,44.19l2.16-.73,1.47,4.31-2.16.73c-1.19.41-2.48-.23-2.89-1.42-.2-.6-.14-1.22.11-1.74.26-.52.71-.95,1.31-1.15Z"/>
    <path class="cls-1" d="m35.57,47.28l-1.47-4.31,2.16-.73c1.19-.41,2.48.23,2.89,1.42s-.23,2.48-1.42,2.89l-2.16.73Z"/>
    <path class="cls-1" d="m33.21,33.58l-7.31,4.3c-.97-1.98-.26-4.4,1.67-5.53s4.39-.58,5.64,1.24Z"/>
    <path class="cls-1" d="m33.62,34.29c.97,1.98.26,4.4-1.67,5.53s-4.39.58-5.64-1.24l7.31-4.3Z"/>
  </g>
</svg>