<?xml version="1.0" encoding="UTF-8"?>
<svg id="Layer_1" data-name="Layer 1" xmlns="http://www.w3.org/2000/svg" viewBox="0 0 65 65">
  <defs>
    <style>
      .cls-1 {
        fill: #fff;
        stroke: #fff;
        stroke-miterlimit: 10;
        stroke-width: .25px;
      }

      .cls-2 {
        fill: #00a79d;
        stroke-width: 0px;
      }
    </style>
  </defs>
  <circle class="cls-2" cx="32.5" cy="32.5" r="32.5"/>
  <g>
    <path class="cls-1" d="m18.29,36.66l2.21,3.07,8.83,12.02c.12.12.25.25.37.25h0c.12,0,.25,0,.37-.12l12.88-14.35c2.82-3.19,2.58-8.1-.61-10.92s-8.1-2.58-10.92.61h0l-.74.86-.12-.12c-1.47-1.96-3.68-3.07-6.13-3.07-4.29-.12-7.61,3.19-7.61,7.36,0,1.59.49,3.19,1.47,4.42h0Zm3.19,2.82l.74-.74,9.82-10.92c2.58-2.82,6.87-3.07,9.69-.49,2.82,2.45,3.07,6.87.49,9.57l-12.51,13.86-8.22-11.29Zm-3.68-8.22c.61-3.68,3.93-6.13,7.61-5.52,1.72.25,3.31,1.23,4.29,2.58l.25.25-8.96,10.06-1.84-2.58c-1.23-1.35-1.59-3.07-1.35-4.78Z"/>
    <path class="cls-1" d="m29.95,19.86c0-2.33-1.84-4.17-4.17-4.17-2.21.12-4.05,1.96-4.05,4.17,0,2.33,1.84,4.17,4.17,4.17,2.21,0,4.05-1.84,4.05-4.17Zm-.98,0c0,1.72-1.47,3.19-3.19,3.19s-3.19-1.35-3.19-3.19c0-1.72,1.47-3.19,3.19-3.19,1.84,0,3.19,1.47,3.19,3.19Z"/>
    <path class="cls-1" d="m42.46,18.26c0-3.07-2.45-5.52-5.52-5.52s-5.52,2.45-5.52,5.52,2.45,5.52,5.52,5.52,5.52-2.45,5.52-5.52Zm-.98,0c0,2.58-2.09,4.54-4.54,4.54s-4.54-2.09-4.54-4.54c0-2.58,2.09-4.54,4.54-4.54,2.45,0,4.54,1.96,4.54,4.54Z"/>
  </g>
</svg>